<?xml version="1.0" standalone="no"?>
<!DOCTYPE svg PUBLIC "-//W3C//DTD SVG 20010904//EN"
 "http://www.w3.org/TR/2001/REC-SVG-20010904/DTD/svg10.dtd">
<svg version="1.0" xmlns="http://www.w3.org/2000/svg"
 width="512.000000pt" height="512.000000pt" viewBox="0 0 512.000000 512.000000"
 preserveAspectRatio="xMidYMid meet">
<metadata>
Created by potrace 1.14, written by Peter Selinger 2001-2017
</metadata>
<g transform="translate(0.000000,512.000000) scale(0.100000,-0.100000)"
fill="#000000" stroke="none">
<path d="M1630 4774 c0 -84 -3 -114 -12 -115 -7 -1 -112 -2 -233 -3 l-220 -1
-2 -95 c0 -52 -2 -105 -2 -117 -1 -21 -5 -22 -93 -21 -156 1 -138 15 -138
-117 l0 -114 -117 -3 -117 -3 1 -115 1 -115 -116 0 -117 0 0 -230 0 -230 -115
-5 -115 -5 -2 -927 -1 -927 116 -3 117 -3 0 -230 0 -230 105 -2 c58 -1 110 -2
116 -2 9 -1 12 -36 10 -116 l-1 -115 118 0 117 0 0 -115 0 -115 28 -1 c15 -1
66 -1 115 -1 61 1 87 -3 88 -11 0 -7 1 -59 1 -117 l0 -105 221 1 c122 0 228
-2 235 -4 9 -3 12 -36 12 -117 l0 -113 928 0 927 0 5 116 5 117 232 0 232 0
-2 98 c-3 140 -7 135 110 135 54 0 104 0 111 1 9 1 12 31 12 116 l0 115 118 0
117 0 -2 115 -2 115 32 1 c18 0 70 1 117 1 l86 1 -1 221 c-1 122 0 227 3 234
3 9 36 12 118 12 l113 0 0 930 0 930 -115 0 c-84 0 -114 3 -115 13 -1 6 -2
111 -3 232 l-1 220 -90 2 c-49 0 -102 2 -116 2 l-26 1 -1 103 c0 56 -1 108 -1
115 -1 9 -31 12 -116 12 l-115 0 0 118 0 117 -115 -1 -115 -2 -1 27 c-1 14 -1
67 -1 116 l0 90 -232 0 -231 0 -3 117 -3 116 -929 0 -930 0 0 -114z m1606
-353 c21 -1 22 -5 20 -116 l-1 -115 233 0 232 0 1 -32 c1 -18 1 -67 1 -108 0
-41 4 -79 8 -85 5 -6 55 -10 118 -9 l109 1 -1 -114 c-1 -130 -8 -122 99 -121
39 0 85 0 102 -1 l33 -1 2 -232 3 -232 113 1 112 1 1 -31 c1 -43 1 -1316 0
-1343 -1 -20 -6 -21 -98 -22 -54 0 -106 -1 -115 -1 -17 -1 -18 -19 -18 -231 0
-212 -1 -230 -17 -231 -10 0 -62 -1 -115 -1 -65 0 -98 -4 -99 -12 -1 -6 -1
-59 -1 -117 l-1 -106 -116 0 -116 1 -1 -100 c-1 -54 -2 -107 -3 -116 -1 -16
-21 -18 -233 -20 l-232 -3 1 -113 c0 -61 -2 -112 -6 -113 -3 0 -316 -1 -696
-1 l-690 -1 -2 99 c-1 54 -2 107 -2 117 -1 16 -19 17 -231 17 -212 0 -230 1
-231 18 0 9 -1 61 -1 115 -1 63 -5 97 -12 98 -6 1 -58 2 -116 2 l-105 2 -1
106 c0 58 -4 110 -7 116 -5 7 -38 11 -85 11 -42 0 -92 0 -109 1 l-33 1 0 230
c0 177 -3 230 -12 231 -7 1 -59 1 -115 0 -74 0 -103 3 -104 12 -1 16 -1 1269
0 1334 l1 52 93 -1 c50 0 102 0 115 1 l22 1 0 230 c0 197 2 230 15 231 8 0 61
1 117 2 l102 2 -1 116 0 116 114 -1 c130 -1 122 -7 121 99 0 39 0 85 1 103 l1
32 230 0 c177 0 230 3 231 13 0 6 1 58 1 114 l0 102 42 3 c33 2 1258 1 1332
-1z"/>
<path d="M1888 3720 l-25 -5 0 -1042 0 -1042 116 -3 116 -3 0 -107 c0 -58 3
-110 8 -114 11 -12 908 -11 915 1 4 6 7 53 8 105 1 52 2 101 3 108 1 9 31 12
114 12 l114 0 0 1045 c0 952 -1 1045 -16 1046 -21 1 -434 1 -443 0 -3 -1 -6
-400 -7 -888 0 -489 0 -906 -1 -929 l0 -41 -225 0 c-131 0 -228 4 -231 9 -3 5
-6 423 -6 929 1 855 0 919 -16 920 -76 4 -404 3 -424 -1z"/>
</g>
</svg>
